<svg version="1.1" id="Layer_1" xmlns="http://www.w3.org/2000/svg" xmlns:xlink="http://www.w3.org/1999/xlink" x="0px" y="0px"
	 width="100%" viewBox="0 0 752 576" enable-background="new 0 0 752 576" xml:space="preserve">
<path fill="#000000" opacity="1.000000" stroke="none" 
	d="
M428.000122,322.985931 
	C447.626495,317.198486 467.756653,320.342651 487.656769,319.828644 
	C507.307404,319.321106 526.985596,319.678711 546.648499,319.917908 
	C559.547791,320.074860 571.373962,323.476044 580.500244,333.297089 
	C587.313843,340.629395 591.310791,349.222015 591.331543,359.399872 
	C591.360352,373.565826 591.352661,387.731873 591.342896,401.897858 
	C591.328430,422.941681 575.615784,440.514923 554.707031,442.365356 
	C535.094788,444.101074 515.412598,442.737061 495.764984,443.093140 
	C488.647614,443.222168 488.536682,443.147919 488.490845,450.296570 
	C488.389313,466.128571 488.441864,481.961456 488.371582,497.793732 
	C488.272614,520.079529 471.822632,538.294556 449.601807,539.720154 
	C429.476105,541.011292 409.257935,540.974121 389.138672,539.693726 
	C366.304718,538.240601 350.153198,520.625671 349.829620,497.748962 
	C349.603363,481.752777 349.868347,465.749878 349.674591,449.752838 
	C349.625244,445.676575 350.996002,443.937714 355.082367,444.034119 
	C364.574677,444.258026 374.072754,444.246429 383.564331,444.491394 
	C396.611267,444.828125 408.917145,442.046753 420.493988,436.041321 
	C413.863464,438.116180 407.385040,440.743896 400.472168,441.905060 
	C397.022919,442.484436 393.600189,443.112488 390.077240,443.108734 
	C356.246185,443.072754 322.415100,443.078613 288.584045,443.050964 
	C262.176727,443.029388 243.734451,424.492767 243.697205,397.957611 
	C243.681534,386.791473 243.659256,375.625214 243.692917,364.459198 
	C243.773438,337.754150 260.782471,320.341248 287.620117,319.914734 
	C306.281433,319.618164 324.952393,319.683624 343.615295,319.905457 
	C348.403107,319.962372 349.929321,318.528046 349.851837,313.693665 
	C349.598083,297.865448 349.642303,282.028442 349.833771,266.197998 
	C350.115601,242.899673 363.411774,226.919235 386.222748,222.198166 
	C388.157410,221.797745 390.182007,221.691956 392.165253,221.687912 
	C410.164368,221.651154 428.163788,221.608963 446.162659,221.683060 
	C469.034760,221.777222 488.267365,240.979050 488.331665,263.736816 
	C488.377777,280.069275 488.211884,296.403564 488.424408,312.733368 
	C488.480591,317.050323 487.280273,318.577972 482.793640,318.465515 
	C471.468201,318.181580 460.125061,318.176697 448.799744,318.472748 
	C441.863708,318.654053 434.870117,319.213043 427.877686,322.796082 
	C421.978119,324.073486 417.699860,326.987610 413.640167,330.329987 
	C418.260559,327.547394 423.255890,325.515869 428.000122,322.985931 
M414.500092,240.372742 
	C408.334473,240.371414 402.168823,240.352112 396.003265,240.372162 
	C378.761230,240.428223 368.365265,250.877182 368.352142,268.175232 
	C368.336365,289.007935 368.343567,309.840607 368.335907,330.673309 
	C368.333099,338.364838 368.326752,338.374207 360.854767,338.376617 
	C336.355530,338.384491 311.856079,338.322723 287.357147,338.411194 
	C272.211029,338.465881 262.391235,348.422729 262.355225,363.535095 
	C262.327026,375.368011 262.274200,387.201721 262.381226,399.033752 
	C262.450592,406.702484 264.943970,413.407349 271.065002,418.412567 
	C276.452393,422.817902 282.713654,424.660400 289.596924,424.659790 
	C323.595886,424.656860 357.594818,424.665283 391.593781,424.654297 
	C396.079651,424.652832 400.519318,424.446106 405.010590,423.830017 
	C429.256989,420.504181 448.428711,403.776031 454.735260,380.053741 
	C455.048065,378.877167 454.890778,377.311951 456.750397,377.179108 
	C459.142975,389.425842 458.478577,402.324768 455.936218,412.314209 
	C449.762909,436.570007 433.201874,451.107971 410.357666,459.335022 
	C398.615082,463.563965 386.352020,462.390900 374.235687,462.331665 
	C370.439301,462.313080 368.778961,463.439484 368.792389,467.405701 
	C368.822296,476.232330 368.491272,485.059448 368.424255,493.887238 
	C368.299591,510.305176 378.863464,521.303711 395.315125,521.530212 
	C411.478394,521.752747 427.656128,521.952881 443.810150,521.518188 
	C459.254181,521.102478 470.280914,509.390350 469.820953,495.106506 
	C469.172302,474.960907 469.627319,454.779694 469.615509,434.613708 
	C469.609924,425.088226 469.614990,425.084534 478.893951,424.524841 
	C480.887207,424.404602 482.883148,424.226440 484.877106,424.236267 
	C505.705353,424.338623 526.538269,424.800781 547.360107,424.496674 
	C564.025085,424.253326 573.685913,411.516724 572.950256,398.469818 
	C572.285278,386.675995 572.983337,374.811188 572.841125,362.980560 
	C572.668030,348.576599 562.579651,338.447998 548.133850,338.456207 
	C510.806702,338.477417 473.476166,338.023651 436.153015,338.926422 
	C418.124054,339.362488 404.010681,347.390167 392.914948,361.309814 
	C391.361572,363.258484 390.475525,365.903687 387.475861,367.381195 
	C387.566650,362.758484 390.069366,359.401794 390.972961,355.620880 
	C386.243439,363.018799 384.857758,371.556641 382.196259,379.794891 
	C381.648071,375.151245 381.728149,370.554565 381.634888,365.961395 
	C381.079010,338.579132 399.888733,315.933563 423.528137,306.477570 
	C436.808105,301.165405 450.549591,301.371948 464.346680,301.620728 
	C468.578430,301.697052 469.863464,300.331299 469.776764,296.226227 
	C469.555176,285.731079 469.735596,275.228119 469.663086,264.728912 
	C469.582336,253.033615 461.954498,243.526489 450.391327,241.321121 
	C438.852264,239.120392 427.129761,240.854507 414.500092,240.372742 
M439.933319,421.428436 
	C442.593964,418.354797 445.289734,415.305847 446.933350,411.478729 
	C441.222473,419.393646 434.465820,426.257233 426.591644,432.051239 
	C431.656311,429.579071 435.706482,425.946716 439.933319,421.428436 
z"/>
<path fill="#000000" opacity="1.000000" stroke="none" 
	d="
M660.530884,112.516357 
	C661.880432,117.625427 661.298523,122.460098 661.318665,127.264145 
	C661.394714,145.398483 661.403625,163.533707 661.283630,181.667572 
	C661.267395,184.123001 662.801636,187.764160 659.713074,188.804306 
	C656.409180,189.916977 652.214355,190.530594 649.180237,188.221634 
	C647.189453,186.706589 645.991516,187.224960 644.321655,187.910309 
	C625.841980,195.495041 610.801086,185.890564 609.625610,165.807587 
	C609.333435,160.817276 609.363281,155.887009 610.545227,150.983475 
	C614.218811,135.742722 629.217163,128.431808 643.519043,134.959412 
	C644.255798,135.295654 645.022522,135.566116 646.182495,136.030075 
	C647.624939,130.954559 646.785583,126.014427 646.852295,121.165337 
	C646.986877,111.383858 646.889038,111.370132 656.751465,111.713135 
	C657.900696,111.753105 659.042114,112.021980 660.530884,112.516357 
M647.587952,170.661835 
	C647.604919,164.690079 647.628906,158.718307 647.634216,152.746552 
	C647.635620,151.093323 647.831238,149.296555 646.289124,148.166916 
	C639.301208,143.048126 629.929443,143.119980 625.876953,151.348618 
	C623.059387,157.069656 622.638000,163.039337 624.359070,169.224457 
	C625.959045,174.974503 629.161011,178.044266 634.572083,178.594925 
	C640.427551,179.190826 644.781616,176.793991 647.587952,170.661835 
z"/>
<path fill="#000000" opacity="1.000000" stroke="none" 
	d="
M216.776733,157.608398 
	C223.241592,173.762314 214.162537,188.558121 196.798370,190.215347 
	C188.168472,191.038940 179.544113,190.671951 171.324585,186.985916 
	C167.266953,185.166275 165.935257,183.045700 168.260559,178.957870 
	C169.461273,176.847061 169.595718,174.155518 171.816696,172.302963 
	C178.361954,175.525543 185.061722,178.357651 192.641434,177.930557 
	C195.210083,177.785843 197.560379,177.227051 199.655334,175.696686 
	C205.160431,171.675125 204.996078,165.589188 199.302429,161.778946 
	C193.275467,157.745651 186.039276,156.531555 179.668213,153.243652 
	C171.477524,149.016724 167.165573,142.797043 167.757492,134.805069 
	C168.446548,125.501297 172.732483,118.535988 181.811539,115.535378 
	C192.327972,112.059715 202.753586,112.924591 212.911758,117.413544 
	C215.263458,118.452759 215.764313,120.005020 215.083679,122.198334 
	C214.591217,123.785286 213.809937,125.292343 213.417114,126.898529 
	C212.513794,130.592010 210.678314,131.361572 207.305450,129.494644 
	C202.532394,126.852715 197.326263,125.953110 191.874710,126.370926 
	C187.784470,126.684410 184.833084,128.750778 183.646301,132.540390 
	C182.505981,136.181625 185.148270,138.486755 187.795135,140.322174 
	C192.771896,143.773178 198.692062,145.215195 204.147827,147.653976 
	C209.082474,149.859818 213.642532,152.499542 216.776733,157.608398 
z"/>
<path fill="#000000" opacity="1.000000" stroke="none" 
	d="
M416.031677,119.983749 
	C425.478760,111.242706 444.544769,112.426132 454.710388,117.575142 
	C456.879364,118.673752 457.559998,120.046677 456.609344,122.395905 
	C455.558777,124.992126 454.791870,127.703148 453.977081,130.138000 
	C451.584839,131.127380 450.065125,129.765793 448.483063,129.028931 
	C443.686493,126.794823 438.690704,125.961227 433.425568,126.268761 
	C429.119110,126.520294 425.966217,128.419418 424.868317,132.610397 
	C423.722260,136.985229 426.586670,139.562469 430.055420,141.219467 
	C434.553925,143.368317 439.240814,145.123260 443.849335,147.041260 
	C456.813263,152.436691 461.800964,159.794052 460.226013,171.206726 
	C458.813751,181.440491 449.541595,189.207687 436.999146,190.261154 
	C428.617340,190.965149 420.449066,189.828583 412.537079,186.679321 
	C408.664673,185.137955 407.715729,183.008026 409.583435,179.397125 
	C410.039459,178.515457 410.406860,177.561859 410.647339,176.599442 
	C411.555786,172.963959 413.282043,172.037582 416.721619,174.123993 
	C422.471100,177.611557 428.849060,178.580246 435.489868,177.898911 
	C440.707581,177.363602 444.086090,174.563568 444.758789,170.310974 
	C445.569031,165.188461 443.080597,161.997375 438.604858,160.151535 
	C433.681732,158.121155 428.663025,156.323746 423.720978,154.337784 
	C407.826965,147.950775 404.344971,132.977402 416.031677,119.983749 
z"/>
<path fill="#000000" opacity="1.000000" stroke="none" 
	d="
M242.841644,166.372253 
	C238.630432,168.320419 240.483673,170.934952 241.888260,173.044006 
	C245.655060,178.699936 251.539520,179.063461 257.485596,178.412674 
	C260.588013,178.073120 263.762085,177.295502 266.617004,176.055466 
	C270.455750,174.388077 271.390045,176.843231 272.289551,179.415863 
	C273.192261,181.997681 275.813446,185.085114 271.263794,186.844650 
	C259.844452,191.260956 248.300339,192.561813 236.994064,186.724289 
	C228.073318,182.118439 225.610138,173.590485 225.309509,164.467590 
	C224.951523,153.604599 225.813721,142.746155 236.627792,136.493454 
	C246.041122,131.050659 256.024017,130.751205 265.681274,135.976044 
	C274.409027,140.697983 276.160828,149.205048 276.350830,158.154312 
	C276.522705,166.252151 276.372528,166.242462 268.212677,166.249481 
	C259.891357,166.256638 251.570053,166.292587 242.841644,166.372253 
M261.619324,151.003769 
	C259.792023,145.421829 255.495880,144.056946 250.234619,144.334335 
	C245.486771,144.584656 242.710571,147.281723 241.069580,151.536972 
	C239.939240,154.468079 240.788788,155.726044 243.938782,156.223358 
	C248.453613,156.936127 252.925049,155.781036 257.369415,156.270035 
	C261.118622,156.682587 262.252686,155.189651 261.619324,151.003769 
z"/>
<path fill="#000000" opacity="1.000000" stroke="none" 
	d="
M494.793823,132.674164 
	C509.551849,134.078171 516.133179,141.154404 516.261414,155.431046 
	C516.348145,165.088043 516.172119,174.748657 516.359985,184.402863 
	C516.431458,188.077103 515.135132,189.731049 511.461182,189.293365 
	C507.784180,188.855301 502.878204,191.261261 501.993591,184.204117 
	C496.079498,188.717499 490.109314,190.732773 483.371521,190.380753 
	C475.285278,189.958313 468.316223,185.243347 466.892334,178.967819 
	C464.775146,169.636719 468.176483,162.414673 476.781616,158.371002 
	C482.913513,155.489517 489.461884,154.583466 496.200043,154.609055 
	C498.029663,154.615997 500.646332,155.554123 501.324554,152.886612 
	C501.943634,150.451660 500.513977,148.218002 498.652710,146.792007 
	C493.649109,142.958588 487.951874,144.043243 482.382233,145.104355 
	C479.810303,145.594345 477.561249,147.316376 474.928589,147.402588 
	C474.557526,147.108841 474.207550,146.959213 474.059479,146.696030 
	C469.749512,139.035675 470.360291,137.513062 478.596649,134.658249 
	C483.716980,132.883499 488.971497,132.428268 494.793823,132.674164 
M486.817505,166.213394 
	C483.109497,167.785675 480.737091,170.252243 481.446472,174.608215 
	C482.022400,178.144669 485.017517,178.684769 487.752350,179.243561 
	C491.895325,180.090073 498.579590,177.008591 500.716217,173.397507 
	C502.163330,170.951797 502.156952,168.175537 501.134644,165.745468 
	C500.181641,163.480118 497.644745,164.493790 495.758667,164.349335 
	C492.889618,164.129623 490.183563,164.912384 486.817505,166.213394 
z"/>
<path fill="#000000" opacity="1.000000" stroke="none" 
	d="
M566.293213,137.203430 
	C566.324219,147.682541 566.298523,157.679672 566.359009,167.676254 
	C566.399780,174.410553 569.533691,178.157104 575.030823,178.243454 
	C581.382568,178.343231 587.630310,173.076340 587.678650,167.391144 
	C587.759338,157.894760 587.836548,148.394333 587.636230,138.901489 
	C587.553406,134.976044 588.973572,133.600082 592.863892,133.690796 
	C603.835144,133.946594 602.259399,132.718506 602.326416,142.900986 
	C602.415283,156.396255 602.394592,169.892838 602.306152,183.388107 
	C602.290466,185.791153 603.391968,188.881134 599.053467,189.329865 
	C591.309692,190.130737 589.344788,189.433640 588.106689,184.113663 
	C582.835449,188.405792 577.134277,190.785065 570.273438,190.455734 
	C559.255493,189.926788 552.100586,183.370209 551.835327,172.253387 
	C551.565247,160.930023 551.828186,149.594803 551.733582,138.265823 
	C551.707458,135.135986 552.804565,133.575684 556.077332,133.742416 
	C558.403931,133.860931 560.740906,133.773132 563.073242,133.782761 
	C565.028503,133.790817 566.254211,134.600845 566.293213,137.203430 
z"/>
<path fill="#000000" opacity="1.000000" stroke="none" 
	d="
M371.209381,152.116028 
	C366.902252,163.154953 362.562622,173.774979 358.631256,184.544067 
	C357.235718,188.366867 355.114655,189.837082 351.209473,189.381866 
	C349.238220,189.152084 347.216797,189.240723 345.224731,189.331543 
	C342.919769,189.436600 341.408875,188.467300 340.587158,186.349823 
	C334.154724,169.774200 327.718628,153.199997 321.310913,136.614838 
	C321.088348,136.038803 321.152008,135.352173 321.052368,134.445129 
	C325.584656,133.096115 330.043457,133.696945 334.431030,133.923660 
	C336.947601,134.053711 337.128998,136.692047 337.738312,138.424164 
	C340.770264,147.043274 343.583679,155.739075 346.509277,164.395966 
	C347.194427,166.423416 348.016449,168.404617 348.930145,170.814911 
	C350.823273,169.407837 351.023651,167.527023 351.585388,165.946625 
	C354.700989,157.181046 357.938416,148.449524 360.701416,139.571686 
	C362.129364,134.983582 364.590332,132.996307 369.343567,133.676163 
	C371.928680,134.045914 374.650787,133.176041 377.691772,134.664658 
	C376.278961,140.606659 373.517456,146.083389 371.209381,152.116028 
z"/>
<path fill="#000000" opacity="1.000000" stroke="none" 
	d="
M541.348267,143.000092 
	C541.346008,156.971664 541.221802,170.444946 541.414734,183.913712 
	C541.473267,187.995712 540.170593,189.845459 536.017029,189.324951 
	C535.362244,189.242889 534.687988,189.318253 534.022705,189.318863 
	C526.803345,189.325516 526.780884,189.325409 526.778809,182.230194 
	C526.772400,160.609222 526.761658,138.988174 526.828796,117.367393 
	C526.835022,115.366417 526.026855,112.348564 528.986633,112.005997 
	C532.843689,111.559570 536.995239,110.607414 540.618958,112.793877 
	C541.855164,113.539810 541.324524,115.582588 541.329529,117.053825 
	C541.358521,125.535835 541.346313,134.017990 541.348267,143.000092 
z"/>
<path fill="#000000" opacity="1.000000" stroke="none" 
	d="
M301.065857,151.143341 
	C298.821198,154.092438 298.310394,157.089920 298.362732,160.379028 
	C298.489960,168.375900 298.154846,176.386475 298.490875,184.371124 
	C298.666321,188.540100 297.074951,189.501724 293.305450,189.400711 
	C282.813965,189.119583 283.665039,190.575012 283.658539,179.689255 
	C283.651093,167.190781 283.684570,154.692200 283.646515,142.193848 
	C283.620392,133.609070 283.580444,133.723648 291.983612,133.652939 
	C295.121155,133.626541 297.592163,134.001907 298.034393,138.256683 
	C302.140991,135.474930 305.836578,133.036957 310.447754,132.691040 
	C314.567749,132.381973 316.581909,133.652237 316.495605,138.232071 
	C316.355927,145.642609 316.583954,145.642868 309.338623,146.367844 
	C306.014954,146.700424 303.337341,148.212280 301.065857,151.143341 
z"/>
<path fill="#000000" opacity="1.000000" stroke="none" 
	d="
M383.180359,170.936707 
	C384.140961,160.514221 383.145844,150.541733 383.122864,140.567215 
	C383.107208,133.761475 383.207245,133.718185 390.183594,133.705658 
	C391.515015,133.703262 392.849487,133.766296 394.177185,133.696518 
	C396.878540,133.554550 398.186829,134.742798 398.183563,137.491898 
	C398.164551,153.468582 398.182922,169.445328 398.175262,185.422043 
	C398.174011,188.057068 396.900024,189.452423 394.172424,189.326050 
	C394.006439,189.318375 393.839661,189.330612 393.673248,189.329651 
	C381.713898,189.260803 383.393433,190.163330 383.557068,179.854263 
	C383.601837,177.033035 383.320984,174.206650 383.180359,170.936707 
z"/>
<path fill="#000000" opacity="1.000000" stroke="none" 
	d="
M394.305450,110.003662 
	C399.058350,113.647316 400.197205,118.522057 397.525726,122.206795 
	C395.089111,125.567543 389.303497,126.481529 385.300018,124.138168 
	C381.925446,122.162918 380.703644,117.492760 382.587128,113.595886 
	C385.064758,108.469826 389.663727,109.692329 394.305450,110.003662 
z"/>
</svg>